<mxfile host="app.diagrams.net" modified="2024-04-28T10:36:22.254Z" agent="Mozilla/5.0 (Windows NT 10.0; Win64; x64) AppleWebKit/537.36 (KHTML, like Gecko) Chrome/124.0.0.0 Safari/537.36" version="24.3.1" etag="fKUG8GEcrOxzsPy1ks_b" type="github">
  <diagram name="Page-1" id="98I2tT6OsIm2iXWEZE-p">
    <mxGraphModel>
      <root>
        <mxCell id="0" />
        <mxCell id="1" parent="0" />
      </root>
    </mxGraphModel>
  </diagram>
</mxfile>
